<svg viewBox="0 0 452 303" fill="none" xmlns="http://www.w3.org/2000/svg">
<path fill-rule="evenodd" clip-rule="evenodd" d="M225.99 0C350.79 0 451.99 67.7001 451.99 151.18C451.99 234.66 350.79 302.36 225.99 302.36C101.2 302.36 0 234.66 0 151.18C0 67.7001 101.2 0 225.99 0ZM77.26 236.73L132.96 51.92C135.38 42.78 149.53 37.38 159.8 47.09L295.59 187.18L335.83 41.76C304.56 27.22 266.74 18.7 225.99 18.7C118.42 18.7 31.17 78.0301 31.17 151.18C31.17 183.79 48.52 213.64 77.26 236.73ZM372.29 63.72L326.19 238.71C321.29 254.44 307.55 253.09 297.74 243.54L163.56 103.99L116.52 260.77C147.72 275.21 185.41 283.66 225.99 283.66C333.57 283.66 420.81 224.33 420.81 151.18C420.81 117.66 402.49 87.05 372.29 63.72Z" fill="currentColor"/>
</svg>
